<svg width="16" height="16" viewBox="0 0 16 16" fill="none" xmlns="http://www.w3.org/2000/svg">
<g clip-path="url(#clip0_23_377)">
<path d="M11.6667 1.27802C10.916 1.28969 10.1816 1.49925 9.53783 1.88553C8.89404 2.27181 8.36357 2.82113 7.99999 3.47802C7.63642 2.82113 7.10595 2.27181 6.46215 1.88553C5.81835 1.49925 5.08403 1.28969 4.33333 1.27802C3.13662 1.33001 2.00913 1.85352 1.19718 2.73417C0.385232 3.61482 -0.0451745 4.78103 -7.46106e-06 5.97802C-7.46106e-06 9.00935 3.19066 12.32 5.86666 14.5647C6.46414 15.0668 7.21956 15.342 7.99999 15.342C8.78042 15.342 9.53585 15.0668 10.1333 14.5647C12.8093 12.32 16 9.00935 16 5.97802C16.0452 4.78103 15.6148 3.61482 14.8028 2.73417C13.9909 1.85352 12.8634 1.33001 11.6667 1.27802Z" fill="#343434"/>
</g>
<defs>
<clipPath id="clip0_23_377">
<rect width="16" height="16" fill="white"/>
</clipPath>
</defs>
</svg>
