<svg width="13" height="12" viewBox="0 0 13 12" fill="none" xmlns="http://www.w3.org/2000/svg">
<path d="M12.2805 10.7226L9.95793 8.39905C11.6958 6.07667 11.2219 2.78517 8.89954 1.04731C6.57716 -0.690552 3.28566 -0.216694 1.5478 2.10569C-0.190063 4.42808 0.283794 7.71958 2.60618 9.45744C4.47171 10.8534 7.03399 10.8534 8.89954 9.45744L11.2231 11.781C11.5151 12.073 11.9885 12.073 12.2805 11.781C12.5725 11.489 12.5725 11.0156 12.2805 10.7236L12.2805 10.7226ZM5.77223 9.00897C3.7082 9.00897 2.03499 7.33576 2.03499 5.27174C2.03499 3.20771 3.7082 1.5345 5.77223 1.5345C7.83625 1.5345 9.50946 3.20771 9.50946 5.27174C9.50726 7.33483 7.83534 9.00678 5.77223 9.00897Z" fill="#B5B5B5"/>
</svg>
