<svg width="16" height="16" viewBox="0 0 16 16" fill="none" xmlns="http://www.w3.org/2000/svg">
<g clip-path="url(#clip0_23_379)">
<path d="M11 9.33335C11 9.59857 10.8946 9.85292 10.7071 10.0405C10.5196 10.228 10.2652 10.3334 10 10.3334H9V11.3334C9 11.5986 8.89464 11.8529 8.70711 12.0405C8.51957 12.228 8.26522 12.3334 8 12.3334C7.73478 12.3334 7.48043 12.228 7.29289 12.0405C7.10536 11.8529 7 11.5986 7 11.3334V10.3334H6C5.73478 10.3334 5.48043 10.228 5.29289 10.0405C5.10536 9.85292 5 9.59857 5 9.33335C5 9.06814 5.10536 8.81378 5.29289 8.62625C5.48043 8.43871 5.73478 8.33335 6 8.33335H7V7.33335C7 7.06814 7.10536 6.81378 7.29289 6.62625C7.48043 6.43871 7.73478 6.33335 8 6.33335C8.26522 6.33335 8.51957 6.43871 8.70711 6.62625C8.89464 6.81378 9 7.06814 9 7.33335V8.33335H10C10.2652 8.33335 10.5196 8.43871 10.7071 8.62625C10.8946 8.81378 11 9.06814 11 9.33335ZM16 5.66669V11.6667C15.9989 12.6388 15.6123 13.5708 14.9249 14.2582C14.2375 14.9456 13.3055 15.3323 12.3333 15.3334H3.66667C2.69453 15.3323 1.76252 14.9456 1.07511 14.2582C0.387707 13.5708 0.00105878 12.6388 0 11.6667L0 4.33335C0.00105878 3.36122 0.387707 2.4292 1.07511 1.7418C1.76252 1.05439 2.69453 0.667746 3.66667 0.666687H5.33333C5.4886 0.666594 5.64175 0.702658 5.78067 0.772021L8.236 2.00002H12.3333C13.3055 2.00108 14.2375 2.38773 14.9249 3.07513C15.6123 3.76254 15.9989 4.69455 16 5.66669ZM14 5.66669C13.9999 5.55472 13.9885 5.44304 13.966 5.33335H2V11.6667C2 12.1087 2.17559 12.5326 2.48816 12.8452C2.80072 13.1578 3.22464 13.3334 3.66667 13.3334H12.3333C12.7754 13.3334 13.1993 13.1578 13.5118 12.8452C13.8244 12.5326 14 12.1087 14 11.6667V5.66669Z" fill="#343434"/>
</g>
<defs>
<clipPath id="clip0_23_379">
<rect width="16" height="16" fill="white"/>
</clipPath>
</defs>
</svg>
