<svg width="12" height="13" viewBox="0 0 12 13" fill="none" xmlns="http://www.w3.org/2000/svg">
<g clip-path="url(#clip0_13_89)">
<path d="M6 0.5C4.81331 0.5 3.65328 0.851894 2.66658 1.51118C1.67989 2.17047 0.910851 3.10754 0.456726 4.2039C0.00259972 5.30026 -0.11622 6.50666 0.115291 7.67054C0.346802 8.83443 0.918247 9.90353 1.75736 10.7426C2.59648 11.5818 3.66558 12.1532 4.82946 12.3847C5.99335 12.6162 7.19975 12.4974 8.2961 12.0433C9.39246 11.5892 10.3295 10.8201 10.9888 9.83342C11.6481 8.84673 12 7.68669 12 6.5C11.9983 4.90923 11.3656 3.38411 10.2407 2.25926C9.1159 1.13441 7.59077 0.501721 6 0.5V0.5ZM6 11.5C5.0111 11.5 4.0444 11.2068 3.22215 10.6573C2.39991 10.1079 1.75904 9.32705 1.38061 8.41342C1.00217 7.49979 0.90315 6.49445 1.09608 5.52455C1.289 4.55464 1.76521 3.66373 2.46447 2.96447C3.16373 2.2652 4.05465 1.789 5.02455 1.59607C5.99446 1.40315 6.99979 1.50216 7.91342 1.8806C8.82705 2.25904 9.60794 2.8999 10.1574 3.72215C10.7068 4.54439 11 5.51109 11 6.5C10.9985 7.82564 10.4713 9.09656 9.53393 10.0339C8.59656 10.9713 7.32564 11.4985 6 11.5Z" fill="white"/>
<path d="M7.76799 4.732C7.86229 4.82308 7.98859 4.87348 8.11969 4.87234C8.25079 4.8712 8.3762 4.81862 8.4689 4.72591C8.5616 4.63321 8.61419 4.5078 8.61533 4.3767C8.61647 4.2456 8.56607 4.1193 8.47499 4.025C7.98549 3.53555 7.36185 3.20225 6.68293 3.06723C6.00401 2.93221 5.30029 3.00154 4.66077 3.26646C4.02125 3.53137 3.47464 3.97998 3.09008 4.55554C2.70551 5.13111 2.50024 5.80778 2.50024 6.5C2.50024 7.19222 2.70551 7.8689 3.09008 8.44446C3.47464 9.02002 4.02125 9.46863 4.66077 9.73355C5.30029 9.99846 6.00401 10.0678 6.68293 9.93278C7.36185 9.79776 7.98549 9.46445 8.47499 8.975C8.56607 8.8807 8.61647 8.7544 8.61533 8.6233C8.61419 8.4922 8.5616 8.3668 8.4689 8.27409C8.3762 8.18139 8.25079 8.1288 8.11969 8.12767C7.98859 8.12653 7.86229 8.17692 7.76799 8.268C7.41833 8.61757 6.97288 8.8556 6.48794 8.95201C6.00301 9.04842 5.50037 8.99888 5.0436 8.80964C4.58682 8.6204 4.19641 8.29997 3.92174 7.88886C3.64706 7.47775 3.50046 6.99443 3.50046 6.5C3.50046 6.00558 3.64706 5.52225 3.92174 5.11114C4.19641 4.70004 4.58682 4.3796 5.0436 4.19037C5.50037 4.00113 6.00301 3.95158 6.48794 4.04799C6.97288 4.1444 7.41833 4.38244 7.76799 4.732Z" fill="white"/>
</g>
<defs>
<clipPath id="clip0_13_89">
<rect width="12" height="12" fill="white" transform="translate(0 0.5)"/>
</clipPath>
</defs>
</svg>
